<svg width="47" height="47" viewBox="0 0 47 47" fill="none" xmlns="http://www.w3.org/2000/svg">
<rect width="47" height="47" rx="5" fill="white"/>
<path d="M13.908 13.0016C13.908 12.1903 14.6085 11.5564 15.4157 11.6371L17.4606 11.8416L17.1053 36.71L15.4307 36.896C14.6184 36.9863 13.908 36.3504 13.908 35.5331V13.0016Z" fill="#FFCC09"/>
<path d="M13.908 13.0016C13.908 12.1903 14.6085 11.5564 15.4157 11.6371L17.4606 11.8416L17.1053 36.71L15.4307 36.896C14.6184 36.9863 13.908 36.3504 13.908 35.5331V13.0016Z" stroke="#E5E5E5"/>
<path d="M9 19.0116C9 18.2112 9.68263 17.5809 10.4805 17.6446L11.8421 17.7533V33.6415L10.4805 33.7502C9.68263 33.8139 9 33.1837 9 32.3833V19.0116Z" fill="#2F373B"/>
<path d="M9 19.0116C9 18.2112 9.68263 17.5809 10.4805 17.6446L11.8421 17.7533V33.6415L10.4805 33.7502C9.68263 33.8139 9 33.1837 9 32.3833V19.0116Z" stroke="#E5E5E5"/>
<path d="M19.5264 11.0655C19.5264 9.96044 20.4818 9.09769 21.5812 9.21008L36.3246 10.7174C37.2763 10.8147 38 11.6163 38 12.5729V35.6123C38 36.5834 37.2548 37.392 36.2869 37.4712L21.5435 38.6771C20.4571 38.7659 19.5264 37.9082 19.5264 36.8182V11.0655Z" fill="#23BBAC"/>
<circle cx="24.5" cy="14.6843" r="2.13158" fill="#1AF3DE"/>
</svg>
