<?xml version="1.0" standalone="no"?>
<!DOCTYPE svg PUBLIC "-//W3C//DTD SVG 20010904//EN"
 "http://www.w3.org/TR/2001/REC-SVG-20010904/DTD/svg10.dtd">
<svg version="1.0" xmlns="http://www.w3.org/2000/svg"
 width="288.000000pt" height="288.000000pt" viewBox="0 0 288.000000 288.000000"
 preserveAspectRatio="xMidYMid meet">
<metadata>
Created by potrace 1.14, written by Peter Selinger 2001-2017
</metadata>
<g transform="translate(0.000000,288.000000) scale(0.100000,-0.100000)"
fill="#000000" stroke="none">
<path d="M545 2865 c-210 -47 -379 -180 -476 -375 -17 -34 -32 -69 -35 -78
-33 -129 -33 -138 -33 -977 1 -784 2 -834 20 -908 63 -259 281 -467 539 -516
36 -7 349 -10 910 -8 l855 2 65 23 c126 46 189 82 273 161 96 89 161 201 196
336 20 78 21 98 18 940 -2 803 -4 864 -21 915 -84 252 -271 427 -518 485 -89
20 -1700 21 -1793 0z"/>
</g>
</svg>
